<svg xmlns="http://www.w3.org/2000/svg" width="512" height="512" viewBox="0 0 512 512" role="img">
    <defs>
      <filter id="softShadow" x="-20%" y="-20%" width="140%" height="140%">
        <feDropShadow dx="0" dy="10" stdDeviation="10" flood-color="#1f2937" flood-opacity="0.16"/>
      </filter>
      <filter id="tinyShadow" x="-20%" y="-20%" width="140%" height="140%">
        <feDropShadow dx="0" dy="5" stdDeviation="5" flood-color="#1f2937" flood-opacity="0.14"/>
      </filter>
      <linearGradient id="paperGrad" x1="0" x2="1" y1="0" y2="1">
        <stop offset="0%" stop-color="#fffaf0"/>
        <stop offset="100%" stop-color="#f4ead8"/>
      </linearGradient>
      <linearGradient id="nightGrad" x1="0" x2="1" y1="0" y2="1">
        <stop offset="0%" stop-color="#20243a"/>
        <stop offset="100%" stop-color="#111827"/>
      </linearGradient>
    </defs>
    <rect width="512" height="512" rx="51" fill="#DCFCE7"/><circle cx="256" cy="256" r="200" fill="#FFFFFF" stroke="#BBF7D0" stroke-width="8" opacity="1"/><circle cx="235" cy="235" r="92" fill="#FFD7B5" stroke="none" stroke-width="0" opacity="1"/><path d="M157 190 C185 120 287 123 317 193 L317 165 C255 120 190 140 157 190Z" fill="#2F4858" stroke="none" stroke-width="6" stroke-linecap="round" stroke-linejoin="round" opacity="1"/><circle cx="140" cy="235" r="16" fill="#FFD7B5" stroke="none" stroke-width="0" opacity="1"/><circle cx="330" cy="235" r="16" fill="#FFD7B5" stroke="none" stroke-width="0" opacity="1"/><circle cx="199" cy="230" r="7" fill="#263238" stroke="none" stroke-width="0" opacity="1"/><circle cx="271" cy="230" r="7" fill="#263238" stroke="none" stroke-width="0" opacity="1"/><path d="M207 277 Q235 300 265 277" fill="none" stroke="#263238" stroke-width="7" stroke-linecap="round" stroke-linejoin="round" opacity="1"/><rect x="285" y="105" width="125" height="80" rx="30" fill="#FFFFFF" stroke="#86EFAC" stroke-width="4" opacity="1"/><text x="347" y="158" font-family="Arial, sans-serif" font-size="42" font-weight="800" fill="#16A34A" text-anchor="middle" opacity="1">Yo</text><circle cx="345" cy="330" r="58" fill="#86EFAC" stroke="#111827" stroke-width="7" opacity="1"/><circle cx="310" cy="324" r="9" fill="#111827" stroke="none" stroke-width="0" opacity="1"/><circle cx="370" cy="324" r="9" fill="#111827" stroke="none" stroke-width="0" opacity="1"/><path d="M318 350 Q345 373 372 350" fill="none" stroke="#111827" stroke-width="6" stroke-linecap="round" stroke-linejoin="round" opacity="1"/></svg>