<svg xmlns="http://www.w3.org/2000/svg" width="1080" height="1920" viewBox="0 0 1080 1920" role="img">
    <defs>
      <filter id="softShadow" x="-20%" y="-20%" width="140%" height="140%">
        <feDropShadow dx="0" dy="10" stdDeviation="10" flood-color="#1f2937" flood-opacity="0.16"/>
      </filter>
      <filter id="tinyShadow" x="-20%" y="-20%" width="140%" height="140%">
        <feDropShadow dx="0" dy="5" stdDeviation="5" flood-color="#1f2937" flood-opacity="0.14"/>
      </filter>
      <linearGradient id="paperGrad" x1="0" x2="1" y1="0" y2="1">
        <stop offset="0%" stop-color="#fffaf0"/>
        <stop offset="100%" stop-color="#f4ead8"/>
      </linearGradient>
      <linearGradient id="nightGrad" x1="0" x2="1" y1="0" y2="1">
        <stop offset="0%" stop-color="#20243a"/>
        <stop offset="100%" stop-color="#111827"/>
      </linearGradient>
    </defs>
    <rect width="1080" height="1920" fill="#FFF7ED"/><rect x="60" y="70" width="960" height="1780" rx="64" fill="#FFFFFF" filter="url(#softShadow)"/><rect x="100" y="120" width="880" height="220" rx="48" fill="#EFF6FF" stroke="none" stroke-width="0" opacity="1"/><circle cx="185" cy="230" r="58" fill="#60A5FA" stroke="#111827" stroke-width="7" opacity="1"/><text x="185" y="249" font-family="Arial, sans-serif" font-size="58" font-weight="900" fill="#FFFFFF" text-anchor="middle" opacity="1">S</text><rect x="285" y="180" width="450" height="36" rx="18" fill="#1E3A8A" stroke="none" stroke-width="0" opacity="0.28"/><rect x="285" y="245" width="620" height="28" rx="14" fill="#1E3A8A" stroke="none" stroke-width="0" opacity="0.16"/><rect x="120" y="430" width="840" height="90" rx="28" fill="#DBEAFE" stroke="#E5E7EB" stroke-width="4" opacity="1"/><rect x="155" y="460" width="420" height="24" rx="12" fill="#111827" stroke="none" stroke-width="0" opacity="0.18"/><rect x="780" y="448" width="95" height="54" rx="18" fill="#FFFFFF" stroke="#111827" stroke-width="4" opacity="1"/><rect x="120" y="560" width="840" height="90" rx="28" fill="#FEF3C7" stroke="#E5E7EB" stroke-width="4" opacity="1"/><rect x="155" y="590" width="420" height="24" rx="12" fill="#111827" stroke="none" stroke-width="0" opacity="0.18"/><rect x="780" y="578" width="95" height="54" rx="18" fill="#FFFFFF" stroke="#111827" stroke-width="4" opacity="1"/><rect x="120" y="690" width="840" height="90" rx="28" fill="#FCE7F3" stroke="#E5E7EB" stroke-width="4" opacity="1"/><rect x="155" y="720" width="420" height="24" rx="12" fill="#111827" stroke="none" stroke-width="0" opacity="0.18"/><rect x="780" y="708" width="95" height="54" rx="18" fill="#FFFFFF" stroke="#111827" stroke-width="4" opacity="1"/><rect x="120" y="820" width="840" height="90" rx="28" fill="#DCFCE7" stroke="#E5E7EB" stroke-width="4" opacity="1"/><rect x="155" y="850" width="420" height="24" rx="12" fill="#111827" stroke="none" stroke-width="0" opacity="0.18"/><rect x="780" y="838" width="95" height="54" rx="18" fill="#FFFFFF" stroke="#111827" stroke-width="4" opacity="1"/><rect x="120" y="1000" width="840" height="280" rx="36" fill="#F8FAFC" stroke="#E5E7EB" stroke-width="4" opacity="1"/><rect x="165" y="1060" width="514" height="18" rx="9" fill="#64748B" stroke="none" stroke-width="0" opacity="0.28"/><rect x="165" y="1102" width="569" height="18" rx="9" fill="#64748B" stroke="none" stroke-width="0" opacity="0.28"/><rect x="165" y="1144" width="501" height="18" rx="9" fill="#64748B" stroke="none" stroke-width="0" opacity="0.28"/><rect x="165" y="1186" width="411" height="18" rx="9" fill="#64748B" stroke="none" stroke-width="0" opacity="0.28"/><rect x="165" y="1228" width="495" height="18" rx="9" fill="#64748B" stroke="none" stroke-width="0" opacity="0.28"/><rect x="120" y="1360" width="840" height="250" rx="36" fill="#FFFBEB" stroke="#FDE68A" stroke-width="5" opacity="1"/><circle cx="200" cy="1485" r="56" fill="#F59E0B" stroke="#111827" stroke-width="6" opacity="1"/><rect x="285" y="1450" width="540" height="32" rx="16" fill="#D97706" stroke="none" stroke-width="0" opacity="0.24"/><rect x="285" y="1512" width="360" height="24" rx="12" fill="#D97706" stroke="none" stroke-width="0" opacity="0.16"/><rect x="120" y="1685" width="840" height="110" rx="32" fill="#111827" stroke="none" stroke-width="0" opacity="1"/><rect x="175" y="1722" width="490" height="28" rx="14" fill="#FFFFFF" stroke="none" stroke-width="0" opacity="0.28"/><rect x="175" y="1762" width="330" height="20" rx="10" fill="#FFFFFF" stroke="none" stroke-width="0" opacity="0.18"/></svg>