<svg xmlns="http://www.w3.org/2000/svg" width="512" height="512" viewBox="0 0 512 512" role="img">
    <defs>
      <filter id="softShadow" x="-20%" y="-20%" width="140%" height="140%">
        <feDropShadow dx="0" dy="10" stdDeviation="10" flood-color="#1f2937" flood-opacity="0.16"/>
      </filter>
      <filter id="tinyShadow" x="-20%" y="-20%" width="140%" height="140%">
        <feDropShadow dx="0" dy="5" stdDeviation="5" flood-color="#1f2937" flood-opacity="0.14"/>
      </filter>
      <linearGradient id="paperGrad" x1="0" x2="1" y1="0" y2="1">
        <stop offset="0%" stop-color="#fffaf0"/>
        <stop offset="100%" stop-color="#f4ead8"/>
      </linearGradient>
      <linearGradient id="nightGrad" x1="0" x2="1" y1="0" y2="1">
        <stop offset="0%" stop-color="#20243a"/>
        <stop offset="100%" stop-color="#111827"/>
      </linearGradient>
    </defs>
    <rect width="512" height="512" rx="51" fill="#EEF2FF"/><circle cx="205" cy="210" r="52" fill="#A5B4FC" stroke="#111827" stroke-width="7" opacity="1"/><circle cx="315" cy="210" r="52" fill="#C4B5FD" stroke="#111827" stroke-width="7" opacity="1"/><path d="M130 376 C140 305 170 276 205 276 C242 276 267 306 274 376 Z" fill="#818CF8" stroke="#111827" stroke-width="7" stroke-linecap="round" stroke-linejoin="round" opacity="1"/><path d="M242 376 C250 306 280 276 315 276 C352 276 382 306 390 376 Z" fill="#A78BFA" stroke="#111827" stroke-width="7" stroke-linecap="round" stroke-linejoin="round" opacity="1"/><rect x="150" y="92" width="220" height="70" rx="30" fill="#FFFFFF" stroke="#C7D2FE" stroke-width="4" opacity="1"/><circle cx="212" cy="128" r="8" fill="#6366F1" stroke="none" stroke-width="0" opacity="1"/><circle cx="256" cy="128" r="8" fill="#6366F1" stroke="none" stroke-width="0" opacity="1"/><circle cx="300" cy="128" r="8" fill="#6366F1" stroke="none" stroke-width="0" opacity="1"/></svg>