<svg xmlns="http://www.w3.org/2000/svg" width="1200" height="480" viewBox="0 0 1200 480" role="img">
    <defs>
      <filter id="softShadow" x="-20%" y="-20%" width="140%" height="140%">
        <feDropShadow dx="0" dy="10" stdDeviation="10" flood-color="#1f2937" flood-opacity="0.16"/>
      </filter>
      <filter id="tinyShadow" x="-20%" y="-20%" width="140%" height="140%">
        <feDropShadow dx="0" dy="5" stdDeviation="5" flood-color="#1f2937" flood-opacity="0.14"/>
      </filter>
      <linearGradient id="paperGrad" x1="0" x2="1" y1="0" y2="1">
        <stop offset="0%" stop-color="#fffaf0"/>
        <stop offset="100%" stop-color="#f4ead8"/>
      </linearGradient>
      <linearGradient id="nightGrad" x1="0" x2="1" y1="0" y2="1">
        <stop offset="0%" stop-color="#20243a"/>
        <stop offset="100%" stop-color="#111827"/>
      </linearGradient>
    </defs>
    
<rect width="1200" height="480" rx="64" fill="#FFF7ED"/>
<rect x="42" y="42" width="1116" height="396" rx="52" fill="#FFFFFF" filter="url(#softShadow)"/>
<rect x="90" y="95" width="480" height="185" rx="30" fill="#EFF6FF" stroke="#BFDBFE" stroke-width="4" opacity="1"/><path d="M130 278 L115 315 L175 278" fill="#EFF6FF" stroke="#BFDBFE" stroke-width="4"/>
<text x="330" y="175" font-family="Arial, sans-serif" font-size="54" font-weight="800" fill="#1E3A8A" text-anchor="middle" opacity="1">SEMESTER</text>
<text x="330" y="238" font-family="Arial, sans-serif" font-size="68" font-weight="900" fill="#1E3A8A" text-anchor="middle" opacity="1">SURVIVAL</text>
<rect x="675" y="112" width="155" height="210" rx="18" fill="#60A5FA" stroke="#1F2937" stroke-width="6" opacity="1"/><line x1="730" y1="124" x2="730" y2="310" stroke="#1F2937" stroke-width="5" stroke-linecap="round" opacity="1"/><rect x="750" y="162" width="45" height="20" rx="10" fill="#FFFFFF" stroke="none" stroke-width="0" opacity="0.85"/>
<rect x="870" y="155" width="115" height="120" rx="28" fill="#F3F4F6" stroke="#111827" stroke-width="7" opacity="1"/><rect x="895" y="135" width="65" height="28" rx="12" fill="#FFFFFF" stroke="#111827" stroke-width="6" opacity="1"/><path d="M985 195 C1040 195 1040 260 985 260" fill="none" stroke="#111827" stroke-width="7" stroke-linecap="round" stroke-linejoin="round" opacity="1"/><rect x="890" y="200" width="75" height="50" rx="18" fill="#C2410C" stroke="none" stroke-width="0" opacity="1"/>
<path d="M988.75 211.25 C992.5 166.25 1007.5 136.25 1030 134.0 C1052.5 136.25 1067.5 166.25 1071.25 211.25 Z" fill="#FBBF24" stroke="#111827" stroke-width="4.5" stroke-linecap="round" stroke-linejoin="round" opacity="1"/><rect x="979.0" y="209.0" width="102.0" height="18.0" rx="9.0" fill="#F59E0B" stroke="#111827" stroke-width="3.75" opacity="1"/><circle cx="1030" cy="237.5" r="11.25" fill="#F59E0B" stroke="#111827" stroke-width="3.75" opacity="1"/>
<path d="M690 350 C800 385 970 385 1095 340" fill="none" stroke="#FDBA74" stroke-width="16" stroke-linecap="round"/>
<circle cx="665" cy="362" r="12" fill="#FB923C"/>
<circle cx="1110" cy="332" r="12" fill="#FB923C"/>
</svg>