<svg xmlns="http://www.w3.org/2000/svg" width="1200" height="420" viewBox="0 0 1200 420" role="img">
    <defs>
      <filter id="softShadow" x="-20%" y="-20%" width="140%" height="140%">
        <feDropShadow dx="0" dy="10" stdDeviation="10" flood-color="#1f2937" flood-opacity="0.16"/>
      </filter>
      <filter id="tinyShadow" x="-20%" y="-20%" width="140%" height="140%">
        <feDropShadow dx="0" dy="5" stdDeviation="5" flood-color="#1f2937" flood-opacity="0.14"/>
      </filter>
      <linearGradient id="paperGrad" x1="0" x2="1" y1="0" y2="1">
        <stop offset="0%" stop-color="#fffaf0"/>
        <stop offset="100%" stop-color="#f4ead8"/>
      </linearGradient>
      <linearGradient id="nightGrad" x1="0" x2="1" y1="0" y2="1">
        <stop offset="0%" stop-color="#20243a"/>
        <stop offset="100%" stop-color="#111827"/>
      </linearGradient>
    </defs>
    <rect width="1200" height="420" rx="42" fill="#F8FAFC"/><rect x="54" y="46" width="170" height="58" rx="22" fill="#FFFFFF" stroke="#111827" stroke-width="5" opacity="1"/><text x="139" y="88" font-family="Arial, sans-serif" font-size="40" font-weight="900" fill="#111827" text-anchor="middle" opacity="1">W7</text><rect x="345" y="70" width="300" height="290" rx="20" fill="#FFFFFF" stroke="#111827" stroke-width="7" opacity="1"/><line x1="385" y1="140" x2="605" y2="140" stroke="#CBD5E1" stroke-width="6" stroke-linecap="round" opacity="1"/><line x1="385" y1="190" x2="565" y2="190" stroke="#CBD5E1" stroke-width="6" stroke-linecap="round" opacity="1"/><line x1="385" y1="240" x2="585" y2="240" stroke="#CBD5E1" stroke-width="6" stroke-linecap="round" opacity="1"/><circle cx="580" cy="125" r="32" fill="#F87171" stroke="#111827" stroke-width="5" opacity="1"/><text x="580" y="137" font-family="Arial, sans-serif" font-size="42" font-weight="800" fill="#FFFFFF" text-anchor="middle" opacity="1">?</text><rect x="735" y="165" width="105" height="115" rx="28" fill="#F3F4F6" stroke="#111827" stroke-width="7" opacity="1"/><rect x="760" y="145" width="55" height="28" rx="12" fill="#FFFFFF" stroke="#111827" stroke-width="6" opacity="1"/><path d="M840 205 C895 205 895 270 840 270" fill="none" stroke="#111827" stroke-width="7" stroke-linecap="round" stroke-linejoin="round" opacity="1"/><rect x="755" y="210" width="65" height="50" rx="18" fill="#C2410C" stroke="none" stroke-width="0" opacity="1"/><circle cx="910" cy="140" r="62" fill="#FCA5A5" stroke="#111827" stroke-width="7" opacity="1"/><text x="910" y="160" font-family="Arial, sans-serif" font-size="72" font-weight="900" fill="#FFFFFF" text-anchor="middle" opacity="1">!</text><rect x="875" y="260" width="155" height="48" rx="18" fill="#111827" stroke="none" stroke-width="0" opacity="1"/><text x="950" y="295" font-family="Arial, sans-serif" font-size="38" font-weight="900" fill="#FFFFFF" text-anchor="middle" opacity="1">D-0</text><text x="145" y="355" font-family="Arial, sans-serif" font-size="46" font-weight="900" fill="#111827" text-anchor="middle" opacity="1">MIDTERM</text></svg>