<svg xmlns="http://www.w3.org/2000/svg" width="1200" height="420" viewBox="0 0 1200 420" role="img">
    <defs>
      <filter id="softShadow" x="-20%" y="-20%" width="140%" height="140%">
        <feDropShadow dx="0" dy="10" stdDeviation="10" flood-color="#1f2937" flood-opacity="0.16"/>
      </filter>
      <filter id="tinyShadow" x="-20%" y="-20%" width="140%" height="140%">
        <feDropShadow dx="0" dy="5" stdDeviation="5" flood-color="#1f2937" flood-opacity="0.14"/>
      </filter>
      <linearGradient id="paperGrad" x1="0" x2="1" y1="0" y2="1">
        <stop offset="0%" stop-color="#fffaf0"/>
        <stop offset="100%" stop-color="#f4ead8"/>
      </linearGradient>
      <linearGradient id="nightGrad" x1="0" x2="1" y1="0" y2="1">
        <stop offset="0%" stop-color="#20243a"/>
        <stop offset="100%" stop-color="#111827"/>
      </linearGradient>
    </defs>
    <rect width="1200" height="420" rx="42" fill="#111827"/><rect width="1200" height="420" rx="42" fill="url(#nightGrad)"/><rect x="54" y="46" width="170" height="58" rx="22" fill="#FEF3C7" stroke="#111827" stroke-width="5" opacity="1"/><text x="139" y="88" font-family="Arial, sans-serif" font-size="40" font-weight="900" fill="#111827" text-anchor="middle" opacity="1">W14</text><rect x="370" y="105" width="285" height="265" rx="20" fill="#FFFFFF" stroke="#111827" stroke-width="7" opacity="1"/><line x1="410" y1="175" x2="615" y2="175" stroke="#CBD5E1" stroke-width="6" stroke-linecap="round" opacity="1"/><line x1="410" y1="225" x2="575" y2="225" stroke="#CBD5E1" stroke-width="6" stroke-linecap="round" opacity="1"/><line x1="410" y1="275" x2="595" y2="275" stroke="#CBD5E1" stroke-width="6" stroke-linecap="round" opacity="1"/><circle cx="590" cy="160" r="32" fill="#F87171" stroke="#111827" stroke-width="5" opacity="1"/><text x="590" y="172" font-family="Arial, sans-serif" font-size="42" font-weight="800" fill="#FFFFFF" text-anchor="middle" opacity="1">?</text><rect x="725" y="170" width="130" height="105" rx="18" fill="#FDE68A" stroke="#111827" stroke-width="7" opacity="1"/><path d="M790 170 L740 90 L845 90 Z" fill="#FBBF24" stroke="#111827" stroke-width="7" stroke-linecap="round" stroke-linejoin="round" opacity="1"/><circle cx="790" cy="82" r="24" fill="#FDE68A" stroke="none" stroke-width="0" opacity="1"/><rect x="900" y="245" width="90" height="88" rx="28" fill="#F3F4F6" stroke="#111827" stroke-width="7" opacity="1"/><rect x="925" y="225" width="40" height="28" rx="12" fill="#FFFFFF" stroke="#111827" stroke-width="6" opacity="1"/><path d="M990 285 C1045 285 1045 350 990 350" fill="none" stroke="#111827" stroke-width="7" stroke-linecap="round" stroke-linejoin="round" opacity="1"/><rect x="920" y="290" width="50" height="50" rx="18" fill="#C2410C" stroke="none" stroke-width="0" opacity="1"/><circle cx="1040" cy="85" r="38" fill="#FBBF24" stroke="none" stroke-width="0" opacity="0.65"/><text x="150" y="355" font-family="Arial, sans-serif" font-size="56" font-weight="900" fill="#FDE68A" text-anchor="middle" opacity="1">FINAL</text></svg>