<svg xmlns="http://www.w3.org/2000/svg" width="512" height="512" viewBox="0 0 512 512" role="img">
    <defs>
      <filter id="softShadow" x="-20%" y="-20%" width="140%" height="140%">
        <feDropShadow dx="0" dy="10" stdDeviation="10" flood-color="#1f2937" flood-opacity="0.16"/>
      </filter>
      <filter id="tinyShadow" x="-20%" y="-20%" width="140%" height="140%">
        <feDropShadow dx="0" dy="5" stdDeviation="5" flood-color="#1f2937" flood-opacity="0.14"/>
      </filter>
      <linearGradient id="paperGrad" x1="0" x2="1" y1="0" y2="1">
        <stop offset="0%" stop-color="#fffaf0"/>
        <stop offset="100%" stop-color="#f4ead8"/>
      </linearGradient>
      <linearGradient id="nightGrad" x1="0" x2="1" y1="0" y2="1">
        <stop offset="0%" stop-color="#20243a"/>
        <stop offset="100%" stop-color="#111827"/>
      </linearGradient>
    </defs>
    <rect width="512" height="512" rx="51" fill="#FEF3C7"/><circle cx="256" cy="256" r="200" fill="#FFFFFF" stroke="#FDE68A" stroke-width="8" opacity="1"/><rect x="155" y="276" width="210" height="110" rx="16" fill="#334155" stroke="none" stroke-width="0" opacity="1"/><rect x="173" y="294" width="174" height="74" rx="8" fill="#94A3B8" stroke="none" stroke-width="0" opacity="1"/><rect x="135" y="386" width="250" height="28" rx="12" fill="#1F2937" stroke="none" stroke-width="0" opacity="1"/><circle cx="256" cy="210" r="92" fill="#FFD7B5" stroke="none" stroke-width="0" opacity="1"/><path d="M178 165 C206 95 308 98 338 168 L338 140 C276 95 211 115 178 165Z" fill="#3B2F2F" stroke="none" stroke-width="6" stroke-linecap="round" stroke-linejoin="round" opacity="1"/><circle cx="161" cy="210" r="16" fill="#FFD7B5" stroke="none" stroke-width="0" opacity="1"/><circle cx="351" cy="210" r="16" fill="#FFD7B5" stroke="none" stroke-width="0" opacity="1"/><line x1="208" y1="205" x2="236" y2="217" stroke="#263238" stroke-width="6" stroke-linecap="round" opacity="1"/><line x1="276" y1="217" x2="304" y2="205" stroke="#263238" stroke-width="6" stroke-linecap="round" opacity="1"/><line x1="226" y1="260" x2="286" y2="260" stroke="#263238" stroke-width="7" stroke-linecap="round" opacity="1"/><text x="398" y="155" font-family="Arial, sans-serif" font-size="76" font-weight="900" fill="#F97316" text-anchor="middle" opacity="1">?</text><text x="115" y="178" font-family="Arial, sans-serif" font-size="48" font-weight="900" fill="#64748B" text-anchor="middle" opacity="1">...</text></svg>