<svg xmlns="http://www.w3.org/2000/svg" width="512" height="512" viewBox="0 0 512 512" role="img">
    <defs>
      <filter id="softShadow" x="-20%" y="-20%" width="140%" height="140%">
        <feDropShadow dx="0" dy="10" stdDeviation="10" flood-color="#1f2937" flood-opacity="0.16"/>
      </filter>
      <filter id="tinyShadow" x="-20%" y="-20%" width="140%" height="140%">
        <feDropShadow dx="0" dy="5" stdDeviation="5" flood-color="#1f2937" flood-opacity="0.14"/>
      </filter>
      <linearGradient id="paperGrad" x1="0" x2="1" y1="0" y2="1">
        <stop offset="0%" stop-color="#fffaf0"/>
        <stop offset="100%" stop-color="#f4ead8"/>
      </linearGradient>
      <linearGradient id="nightGrad" x1="0" x2="1" y1="0" y2="1">
        <stop offset="0%" stop-color="#20243a"/>
        <stop offset="100%" stop-color="#111827"/>
      </linearGradient>
    </defs>
    <rect width="512" height="512" rx="51" fill="#E0F2FE"/><circle cx="256" cy="256" r="200" fill="#FFFFFF" stroke="#BAE6FD" stroke-width="8" opacity="1"/><circle cx="256" cy="238" r="92" fill="#FFD7B5" stroke="none" stroke-width="0" opacity="1"/><path d="M178 193 C206 123 308 126 338 196 L338 168 C276 123 211 143 178 193Z" fill="#5B4636" stroke="none" stroke-width="6" stroke-linecap="round" stroke-linejoin="round" opacity="1"/><circle cx="161" cy="238" r="16" fill="#FFD7B5" stroke="none" stroke-width="0" opacity="1"/><circle cx="351" cy="238" r="16" fill="#FFD7B5" stroke="none" stroke-width="0" opacity="1"/><rect x="198" y="220" width="48" height="36" rx="16" fill="none" stroke="#263238" stroke-width="6" opacity="1"/><rect x="266" y="220" width="48" height="36" rx="16" fill="none" stroke="#263238" stroke-width="6" opacity="1"/><line x1="246" y1="238" x2="266" y2="238" stroke="#263238" stroke-width="6" stroke-linecap="round" opacity="1"/><circle cx="222" cy="238" r="5" fill="#263238" stroke="none" stroke-width="0" opacity="1"/><circle cx="290" cy="238" r="5" fill="#263238" stroke="none" stroke-width="0" opacity="1"/><line x1="226" y1="288" x2="286" y2="288" stroke="#263238" stroke-width="7" stroke-linecap="round" opacity="1"/><rect x="170" y="342" width="172" height="86" rx="34" fill="#334155" stroke="none" stroke-width="0" opacity="1"/><rect x="208" y="342" width="84" height="90" rx="10" fill="#FFFFFF" stroke="none" stroke-width="0" opacity="1"/><path d="M214 370 L256 420 L298 370" fill="#60A5FA" stroke="#111827" stroke-width="5" stroke-linecap="round" stroke-linejoin="round" opacity="1"/><rect x="90" y="95" width="145" height="58" rx="14" fill="#111827" stroke="none" stroke-width="0" opacity="1"/><line x1="110" y1="123" x2="215" y2="123" stroke="#F8FAFC" stroke-width="6" stroke-linecap="round" opacity="1"/></svg>