<svg xmlns="http://www.w3.org/2000/svg" width="512" height="512" viewBox="0 0 512 512" role="img">
    <defs>
      <filter id="softShadow" x="-20%" y="-20%" width="140%" height="140%">
        <feDropShadow dx="0" dy="10" stdDeviation="10" flood-color="#1f2937" flood-opacity="0.16"/>
      </filter>
      <filter id="tinyShadow" x="-20%" y="-20%" width="140%" height="140%">
        <feDropShadow dx="0" dy="5" stdDeviation="5" flood-color="#1f2937" flood-opacity="0.14"/>
      </filter>
      <linearGradient id="paperGrad" x1="0" x2="1" y1="0" y2="1">
        <stop offset="0%" stop-color="#fffaf0"/>
        <stop offset="100%" stop-color="#f4ead8"/>
      </linearGradient>
      <linearGradient id="nightGrad" x1="0" x2="1" y1="0" y2="1">
        <stop offset="0%" stop-color="#20243a"/>
        <stop offset="100%" stop-color="#111827"/>
      </linearGradient>
    </defs>
    <rect width="512" height="512" rx="51" fill="#EEF2FF"/><circle cx="256" cy="256" r="200" fill="#FFFFFF" stroke="#C7D2FE" stroke-width="8" opacity="1"/><rect x="132" y="170" width="248" height="160" rx="22" fill="#334155" stroke="#111827" stroke-width="8" opacity="1"/><rect x="150" y="190" width="212" height="100" rx="12" fill="#DBEAFE" stroke="none" stroke-width="0" opacity="1"/><path d="M304.75 187.25 C307.5 154.25 318.5 132.25 335 130.6 C351.5 132.25 362.5 154.25 365.25 187.25 Z" fill="#FBBF24" stroke="#111827" stroke-width="3.3000000000000003" stroke-linecap="round" stroke-linejoin="round" opacity="1"/><rect x="297.6" y="185.6" width="74.80000000000001" height="13.200000000000001" rx="6.6000000000000005" fill="#F59E0B" stroke="#111827" stroke-width="2.75" opacity="1"/><circle cx="335" cy="206.5" r="8.25" fill="#F59E0B" stroke="#111827" stroke-width="2.75" opacity="1"/><circle cx="380" cy="118" r="36" fill="#EF4444" stroke="#111827" stroke-width="6" opacity="1"/><text x="380" y="132" font-family="Arial, sans-serif" font-size="46" font-weight="900" fill="#FFFFFF" text-anchor="middle" opacity="1">!</text><rect x="230" y="333" width="52" height="52" rx="8" fill="#334155" stroke="none" stroke-width="0" opacity="1"/><rect x="190" y="385" width="132" height="24" rx="12" fill="#111827" stroke="none" stroke-width="0" opacity="1"/></svg>