<svg xmlns="http://www.w3.org/2000/svg" width="512" height="512" viewBox="0 0 512 512" role="img">
    <defs>
      <filter id="softShadow" x="-20%" y="-20%" width="140%" height="140%">
        <feDropShadow dx="0" dy="10" stdDeviation="10" flood-color="#1f2937" flood-opacity="0.16"/>
      </filter>
      <filter id="tinyShadow" x="-20%" y="-20%" width="140%" height="140%">
        <feDropShadow dx="0" dy="5" stdDeviation="5" flood-color="#1f2937" flood-opacity="0.14"/>
      </filter>
      <linearGradient id="paperGrad" x1="0" x2="1" y1="0" y2="1">
        <stop offset="0%" stop-color="#fffaf0"/>
        <stop offset="100%" stop-color="#f4ead8"/>
      </linearGradient>
      <linearGradient id="nightGrad" x1="0" x2="1" y1="0" y2="1">
        <stop offset="0%" stop-color="#20243a"/>
        <stop offset="100%" stop-color="#111827"/>
      </linearGradient>
    </defs>
    <rect width="512" height="512" rx="51" fill="#FCE7F3"/><circle cx="256" cy="256" r="200" fill="#FFFFFF" stroke="#FBCFE8" stroke-width="8" opacity="1"/><circle cx="256" cy="228" r="92" fill="#FFD7B5" stroke="none" stroke-width="0" opacity="1"/><path d="M178 183 C206 113 308 116 338 186 L338 158 C276 113 211 133 178 183Z" fill="#2D1B2E" stroke="none" stroke-width="6" stroke-linecap="round" stroke-linejoin="round" opacity="1"/><circle cx="161" cy="228" r="16" fill="#FFD7B5" stroke="none" stroke-width="0" opacity="1"/><circle cx="351" cy="228" r="16" fill="#FFD7B5" stroke="none" stroke-width="0" opacity="1"/><circle cx="220" cy="223" r="7" fill="#263238" stroke="none" stroke-width="0" opacity="1"/><circle cx="292" cy="223" r="7" fill="#263238" stroke="none" stroke-width="0" opacity="1"/><path d="M228 270 Q256 293 286 270" fill="none" stroke="#263238" stroke-width="7" stroke-linecap="round" stroke-linejoin="round" opacity="1"/><path d="M150 430 C165 340 208 322 256 322 C312 322 356 342 372 430 Z" fill="#FB7185" stroke="#111827" stroke-width="7" stroke-linecap="round" stroke-linejoin="round" opacity="1"/><rect x="218" y="334" width="88" height="52" rx="22" fill="#FFFFFF" stroke="#111827" stroke-width="5" opacity="1"/><line x1="205" y1="361" x2="165" y2="405" stroke="#111827" stroke-width="6" stroke-linecap="round" opacity="1"/><line x1="313" y1="361" x2="355" y2="405" stroke="#111827" stroke-width="6" stroke-linecap="round" opacity="1"/></svg>