<svg xmlns="http://www.w3.org/2000/svg" width="512" height="512" viewBox="0 0 512 512" role="img">
    <defs>
      <filter id="softShadow" x="-20%" y="-20%" width="140%" height="140%">
        <feDropShadow dx="0" dy="10" stdDeviation="10" flood-color="#1f2937" flood-opacity="0.16"/>
      </filter>
      <filter id="tinyShadow" x="-20%" y="-20%" width="140%" height="140%">
        <feDropShadow dx="0" dy="5" stdDeviation="5" flood-color="#1f2937" flood-opacity="0.14"/>
      </filter>
      <linearGradient id="paperGrad" x1="0" x2="1" y1="0" y2="1">
        <stop offset="0%" stop-color="#fffaf0"/>
        <stop offset="100%" stop-color="#f4ead8"/>
      </linearGradient>
      <linearGradient id="nightGrad" x1="0" x2="1" y1="0" y2="1">
        <stop offset="0%" stop-color="#20243a"/>
        <stop offset="100%" stop-color="#111827"/>
      </linearGradient>
    </defs>
    <rect width="512" height="512" rx="51" fill="#FFF7ED"/><rect x="150" y="180" width="165" height="155" rx="28" fill="#F3F4F6" stroke="#111827" stroke-width="7" opacity="1"/><rect x="175" y="160" width="115" height="28" rx="12" fill="#FFFFFF" stroke="#111827" stroke-width="6" opacity="1"/><path d="M315 220 C370 220 370 285 315 285" fill="none" stroke="#111827" stroke-width="7" stroke-linecap="round" stroke-linejoin="round" opacity="1"/><rect x="170" y="225" width="125" height="50" rx="18" fill="#C2410C" stroke="none" stroke-width="0" opacity="1"/><path d="M185 120 C155 80 195 64 170 30 M260 120 C230 80 270 64 245 30 M325 120 C295 80 335 64 310 30" fill="none" stroke="#9A3412" stroke-width="9" stroke-linecap="round" stroke-linejoin="round" opacity="1"/><circle cx="370" cy="305" r="42" fill="#F97316" stroke="#111827" stroke-width="7" opacity="1"/><text x="370" y="322" font-family="Arial, sans-serif" font-size="54" font-weight="900" fill="#FFFFFF" text-anchor="middle" opacity="1">+</text></svg>