<svg xmlns="http://www.w3.org/2000/svg" width="1080" height="1920" viewBox="0 0 1080 1920" role="img">
    <defs>
      <filter id="softShadow" x="-20%" y="-20%" width="140%" height="140%">
        <feDropShadow dx="0" dy="10" stdDeviation="10" flood-color="#1f2937" flood-opacity="0.16"/>
      </filter>
      <filter id="tinyShadow" x="-20%" y="-20%" width="140%" height="140%">
        <feDropShadow dx="0" dy="5" stdDeviation="5" flood-color="#1f2937" flood-opacity="0.14"/>
      </filter>
      <linearGradient id="paperGrad" x1="0" x2="1" y1="0" y2="1">
        <stop offset="0%" stop-color="#fffaf0"/>
        <stop offset="100%" stop-color="#f4ead8"/>
      </linearGradient>
      <linearGradient id="nightGrad" x1="0" x2="1" y1="0" y2="1">
        <stop offset="0%" stop-color="#20243a"/>
        <stop offset="100%" stop-color="#111827"/>
      </linearGradient>
    </defs>
    <rect width="1080" height="1920" fill="url(#nightGrad)"/><circle cx="915" cy="180" r="160" fill="#FBBF24" opacity="0.18"/><circle cx="130" cy="1640" r="210" fill="#60A5FA" opacity="0.12"/><rect x="70" y="90" width="940" height="1740" rx="64" fill="#1F2937" filter="url(#softShadow)"/><rect x="115" y="145" width="850" height="215" rx="48" fill="#374151" stroke="none" stroke-width="0" opacity="1"/><circle cx="195" cy="250" r="58" fill="#FBBF24" stroke="#111827" stroke-width="7" opacity="1"/><text x="195" y="269" font-family="Arial, sans-serif" font-size="58" font-weight="900" fill="#111827" text-anchor="middle" opacity="1">A</text><rect x="295" y="198" width="440" height="34" rx="17" fill="#FBBF24" stroke="none" stroke-width="0" opacity="0.36"/><rect x="295" y="260" width="600" height="26" rx="13" fill="#FFFFFF" stroke="none" stroke-width="0" opacity="0.16"/><rect x="125" y="450" width="830" height="90" rx="28" fill="#27364F" stroke="#4B5563" stroke-width="4" opacity="1"/><rect x="160" y="480" width="420" height="24" rx="12" fill="#FFFFFF" stroke="none" stroke-width="0" opacity="0.2"/><rect x="780" y="468" width="95" height="54" rx="18" fill="#111827" stroke="#6B7280" stroke-width="4" opacity="1"/><rect x="125" y="580" width="830" height="90" rx="28" fill="#3F3424" stroke="#4B5563" stroke-width="4" opacity="1"/><rect x="160" y="610" width="420" height="24" rx="12" fill="#FFFFFF" stroke="none" stroke-width="0" opacity="0.2"/><rect x="780" y="598" width="95" height="54" rx="18" fill="#111827" stroke="#6B7280" stroke-width="4" opacity="1"/><rect x="125" y="710" width="830" height="90" rx="28" fill="#412B3B" stroke="#4B5563" stroke-width="4" opacity="1"/><rect x="160" y="740" width="420" height="24" rx="12" fill="#FFFFFF" stroke="none" stroke-width="0" opacity="0.2"/><rect x="780" y="728" width="95" height="54" rx="18" fill="#111827" stroke="#6B7280" stroke-width="4" opacity="1"/><rect x="125" y="840" width="830" height="90" rx="28" fill="#233D34" stroke="#4B5563" stroke-width="4" opacity="1"/><rect x="160" y="870" width="420" height="24" rx="12" fill="#FFFFFF" stroke="none" stroke-width="0" opacity="0.2"/><rect x="780" y="858" width="95" height="54" rx="18" fill="#111827" stroke="#6B7280" stroke-width="4" opacity="1"/><rect x="125" y="1000" width="830" height="280" rx="36" fill="#111827" stroke="#4B5563" stroke-width="4" opacity="1"/><rect x="165" y="1060" width="407" height="18" rx="9" fill="#93C5FD" stroke="none" stroke-width="0" opacity="0.34"/><rect x="165" y="1102" width="504" height="18" rx="9" fill="#93C5FD" stroke="none" stroke-width="0" opacity="0.34"/><rect x="165" y="1144" width="520" height="18" rx="9" fill="#93C5FD" stroke="none" stroke-width="0" opacity="0.34"/><rect x="165" y="1186" width="474" height="18" rx="9" fill="#93C5FD" stroke="none" stroke-width="0" opacity="0.34"/><rect x="165" y="1228" width="433" height="18" rx="9" fill="#93C5FD" stroke="none" stroke-width="0" opacity="0.34"/><rect x="125" y="1360" width="830" height="250" rx="36" fill="#292524" stroke="#78350F" stroke-width="5" opacity="1"/><circle cx="205" cy="1485" r="56" fill="#F59E0B" stroke="#111827" stroke-width="6" opacity="1"/><rect x="290" y="1450" width="540" height="32" rx="16" fill="#FBBF24" stroke="none" stroke-width="0" opacity="0.3"/><rect x="290" y="1512" width="360" height="24" rx="12" fill="#FFFFFF" stroke="none" stroke-width="0" opacity="0.16"/><rect x="125" y="1685" width="830" height="110" rx="32" fill="#FBBF24" stroke="none" stroke-width="0" opacity="1"/><rect x="175" y="1722" width="490" height="28" rx="14" fill="#111827" stroke="none" stroke-width="0" opacity="0.3"/><rect x="175" y="1762" width="330" height="20" rx="10" fill="#111827" stroke="none" stroke-width="0" opacity="0.18"/></svg>