<svg xmlns="http://www.w3.org/2000/svg" width="512" height="512" viewBox="0 0 512 512" role="img">
    <defs>
      <filter id="softShadow" x="-20%" y="-20%" width="140%" height="140%">
        <feDropShadow dx="0" dy="10" stdDeviation="10" flood-color="#1f2937" flood-opacity="0.16"/>
      </filter>
      <filter id="tinyShadow" x="-20%" y="-20%" width="140%" height="140%">
        <feDropShadow dx="0" dy="5" stdDeviation="5" flood-color="#1f2937" flood-opacity="0.14"/>
      </filter>
      <linearGradient id="paperGrad" x1="0" x2="1" y1="0" y2="1">
        <stop offset="0%" stop-color="#fffaf0"/>
        <stop offset="100%" stop-color="#f4ead8"/>
      </linearGradient>
      <linearGradient id="nightGrad" x1="0" x2="1" y1="0" y2="1">
        <stop offset="0%" stop-color="#20243a"/>
        <stop offset="100%" stop-color="#111827"/>
      </linearGradient>
    </defs>
    <rect width="512" height="512" rx="51" fill="#FCE7F3"/><path d="M236 139 C173 110 112 152 112 220 C112 284 172 299 198 345 C220 380 234 402 256 432 C278 402 292 380 314 345 C340 299 400 284 400 220 C400 152 339 110 276 139 C265 144 256 154 256 154 C256 154 247 144 236 139 Z" fill="#FB7185" stroke="#111827" stroke-width="8" stroke-linecap="round" stroke-linejoin="round" opacity="1"/><path d="M165 250 L215 250 L237 205 L277 315 L304 250 L353 250" fill="none" stroke="#FFFFFF" stroke-width="12" stroke-linecap="round" stroke-linejoin="round" opacity="1"/></svg>