<svg xmlns="http://www.w3.org/2000/svg" width="1200" height="420" viewBox="0 0 1200 420" role="img">
    <defs>
      <filter id="softShadow" x="-20%" y="-20%" width="140%" height="140%">
        <feDropShadow dx="0" dy="10" stdDeviation="10" flood-color="#1f2937" flood-opacity="0.16"/>
      </filter>
      <filter id="tinyShadow" x="-20%" y="-20%" width="140%" height="140%">
        <feDropShadow dx="0" dy="5" stdDeviation="5" flood-color="#1f2937" flood-opacity="0.14"/>
      </filter>
      <linearGradient id="paperGrad" x1="0" x2="1" y1="0" y2="1">
        <stop offset="0%" stop-color="#fffaf0"/>
        <stop offset="100%" stop-color="#f4ead8"/>
      </linearGradient>
      <linearGradient id="nightGrad" x1="0" x2="1" y1="0" y2="1">
        <stop offset="0%" stop-color="#20243a"/>
        <stop offset="100%" stop-color="#111827"/>
      </linearGradient>
    </defs>
    <rect width="1200" height="420" rx="42" fill="#ECFEFF"/><rect x="54" y="46" width="170" height="58" rx="22" fill="#FFFFFF" stroke="#111827" stroke-width="5" opacity="1"/><text x="139" y="88" font-family="Arial, sans-serif" font-size="40" font-weight="900" fill="#111827" text-anchor="middle" opacity="1">W9</text><rect x="0" y="290" width="1200" height="130" rx="0" fill="#22C55E" stroke="none" stroke-width="0" opacity="1"/><path d="M0 340 C240 300 480 365 720 330 C920 300 1040 345 1200 320" fill="none" stroke="#FFFFFF" stroke-width="10" stroke-linecap="round" stroke-linejoin="round" opacity="1"/><circle cx="440" cy="225" r="42" fill="#FFD7B5" stroke="#111827" stroke-width="7" opacity="1"/><path d="M440 267 L410 345 M440 267 L520 330 M422 304 L350 288 M475 306 L565 255" fill="none" stroke="#111827" stroke-width="11" stroke-linecap="round" stroke-linejoin="round" opacity="1"/><rect x="545" y="230" width="105" height="22" rx="10" fill="#EF4444" stroke="#111827" stroke-width="4" opacity="1"/><path d="M760 115 L760 280" fill="none" stroke="#111827" stroke-width="8" stroke-linecap="round" stroke-linejoin="round" opacity="1"/><path d="M760 115 L930 155 L760 195 Z" fill="#F97316" stroke="#111827" stroke-width="6" stroke-linecap="round" stroke-linejoin="round" opacity="1"/><text x="150" y="355" font-family="Arial, sans-serif" font-size="50" font-weight="900" fill="#0F766E" text-anchor="middle" opacity="1">SPORTS</text></svg>