<svg xmlns="http://www.w3.org/2000/svg" width="1200" height="420" viewBox="0 0 1200 420" role="img">
    <defs>
      <filter id="softShadow" x="-20%" y="-20%" width="140%" height="140%">
        <feDropShadow dx="0" dy="10" stdDeviation="10" flood-color="#1f2937" flood-opacity="0.16"/>
      </filter>
      <filter id="tinyShadow" x="-20%" y="-20%" width="140%" height="140%">
        <feDropShadow dx="0" dy="5" stdDeviation="5" flood-color="#1f2937" flood-opacity="0.14"/>
      </filter>
      <linearGradient id="paperGrad" x1="0" x2="1" y1="0" y2="1">
        <stop offset="0%" stop-color="#fffaf0"/>
        <stop offset="100%" stop-color="#f4ead8"/>
      </linearGradient>
      <linearGradient id="nightGrad" x1="0" x2="1" y1="0" y2="1">
        <stop offset="0%" stop-color="#20243a"/>
        <stop offset="100%" stop-color="#111827"/>
      </linearGradient>
    </defs>
    <rect width="1200" height="420" rx="42" fill="#ECFDF5"/><rect x="54" y="46" width="170" height="58" rx="22" fill="#FFFFFF" stroke="#111827" stroke-width="5" opacity="1"/><text x="139" y="88" font-family="Arial, sans-serif" font-size="40" font-weight="900" fill="#111827" text-anchor="middle" opacity="1">W3</text><path d="M0 330 L220 170 L410 330 Z" fill="#86EFAC" stroke="none" stroke-width="6" stroke-linecap="round" stroke-linejoin="round" opacity="1"/><path d="M220 330 L520 120 L780 330 Z" fill="#4ADE80" stroke="none" stroke-width="6" stroke-linecap="round" stroke-linejoin="round" opacity="1"/><path d="M680 330 L950 140 L1200 330 Z" fill="#22C55E" stroke="none" stroke-width="6" stroke-linecap="round" stroke-linejoin="round" opacity="1"/><rect x="270" y="230" width="430" height="110" rx="28" fill="#60A5FA" stroke="#111827" stroke-width="8" opacity="1"/><rect x="315" y="250" width="90" height="50" rx="10" fill="#DBEAFE" stroke="none" stroke-width="0" opacity="1"/><rect x="430" y="250" width="90" height="50" rx="10" fill="#DBEAFE" stroke="none" stroke-width="0" opacity="1"/><rect x="545" y="250" width="90" height="50" rx="10" fill="#DBEAFE" stroke="none" stroke-width="0" opacity="1"/><circle cx="350" cy="350" r="36" fill="#111827" stroke="none" stroke-width="0" opacity="1"/><circle cx="625" cy="350" r="36" fill="#111827" stroke="none" stroke-width="0" opacity="1"/><rect x="770" y="182" width="85" height="160" rx="24" fill="#FDE68A" stroke="#111827" stroke-width="7" opacity="1"/><circle cx="812" cy="156" r="36" fill="#FDE68A" stroke="#111827" stroke-width="7" opacity="1"/><path d="M822 125 C850 96 900 104 907 145 C914 184 868 203 850 230" fill="none" stroke="#111827" stroke-width="12" stroke-linecap="round" stroke-linejoin="round" opacity="1"/><text x="145" y="355" font-family="Arial, sans-serif" font-size="64" font-weight="900" fill="#166534" text-anchor="middle" opacity="1">MT</text></svg>