<svg xmlns="http://www.w3.org/2000/svg" width="1200" height="420" viewBox="0 0 1200 420" role="img">
    <defs>
      <filter id="softShadow" x="-20%" y="-20%" width="140%" height="140%">
        <feDropShadow dx="0" dy="10" stdDeviation="10" flood-color="#1f2937" flood-opacity="0.16"/>
      </filter>
      <filter id="tinyShadow" x="-20%" y="-20%" width="140%" height="140%">
        <feDropShadow dx="0" dy="5" stdDeviation="5" flood-color="#1f2937" flood-opacity="0.14"/>
      </filter>
      <linearGradient id="paperGrad" x1="0" x2="1" y1="0" y2="1">
        <stop offset="0%" stop-color="#fffaf0"/>
        <stop offset="100%" stop-color="#f4ead8"/>
      </linearGradient>
      <linearGradient id="nightGrad" x1="0" x2="1" y1="0" y2="1">
        <stop offset="0%" stop-color="#20243a"/>
        <stop offset="100%" stop-color="#111827"/>
      </linearGradient>
    </defs>
    <rect width="1200" height="420" rx="42" fill="#EEF2FF"/><rect x="54" y="46" width="170" height="58" rx="22" fill="#FFFFFF" stroke="#111827" stroke-width="5" opacity="1"/><text x="139" y="88" font-family="Arial, sans-serif" font-size="40" font-weight="900" fill="#111827" text-anchor="middle" opacity="1">W1</text><rect x="310" y="90" width="440" height="250" rx="34" fill="#FFFFFF" stroke="#111827" stroke-width="7" opacity="0.98"/><rect x="335" y="120" width="390" height="45" rx="14" fill="#BFDBFE" stroke="none" stroke-width="0" opacity="1"/><line x1="355" y1="190" x2="705" y2="190" stroke="#CBD5E1" stroke-width="8" stroke-linecap="round" opacity="1"/><line x1="355" y1="235" x2="705" y2="235" stroke="#CBD5E1" stroke-width="8" stroke-linecap="round" opacity="1"/><line x1="355" y1="280" x2="705" y2="280" stroke="#CBD5E1" stroke-width="8" stroke-linecap="round" opacity="1"/><rect x="820" y="135" width="185" height="235" rx="28" fill="#FBBF24" stroke="#111827" stroke-width="7" opacity="1"/><line x1="845" y1="180" x2="980" y2="180" stroke="#FFFFFF" stroke-width="9" stroke-linecap="round" opacity="1"/><line x1="845" y1="235" x2="980" y2="235" stroke="#FFFFFF" stroke-width="9" stroke-linecap="round" opacity="1"/><line x1="845" y1="290" x2="940" y2="290" stroke="#FFFFFF" stroke-width="9" stroke-linecap="round" opacity="1"/><circle cx="1035" cy="105" r="48" fill="#60A5FA" stroke="#111827" stroke-width="7" opacity="1"/><path d="M1035 105 L1035 70 M1035 105 L1064 122" fill="none" stroke="#111827" stroke-width="6" stroke-linecap="round" stroke-linejoin="round" opacity="1"/><text x="160" y="355" font-family="Arial, sans-serif" font-size="52" font-weight="900" fill="#1E3A8A" text-anchor="middle" opacity="1">START</text></svg>