<svg xmlns="http://www.w3.org/2000/svg" width="1200" height="420" viewBox="0 0 1200 420" role="img">
    <defs>
      <filter id="softShadow" x="-20%" y="-20%" width="140%" height="140%">
        <feDropShadow dx="0" dy="10" stdDeviation="10" flood-color="#1f2937" flood-opacity="0.16"/>
      </filter>
      <filter id="tinyShadow" x="-20%" y="-20%" width="140%" height="140%">
        <feDropShadow dx="0" dy="5" stdDeviation="5" flood-color="#1f2937" flood-opacity="0.14"/>
      </filter>
      <linearGradient id="paperGrad" x1="0" x2="1" y1="0" y2="1">
        <stop offset="0%" stop-color="#fffaf0"/>
        <stop offset="100%" stop-color="#f4ead8"/>
      </linearGradient>
      <linearGradient id="nightGrad" x1="0" x2="1" y1="0" y2="1">
        <stop offset="0%" stop-color="#20243a"/>
        <stop offset="100%" stop-color="#111827"/>
      </linearGradient>
    </defs>
    <rect width="1200" height="420" rx="42" fill="#FFF7ED"/><rect x="54" y="46" width="170" height="58" rx="22" fill="#FFFFFF" stroke="#111827" stroke-width="5" opacity="1"/><text x="139" y="88" font-family="Arial, sans-serif" font-size="40" font-weight="900" fill="#111827" text-anchor="middle" opacity="1">W2</text><rect x="280" y="95" width="260" height="115" rx="30" fill="#FFFFFF" stroke="#FDBA74" stroke-width="4" opacity="1"/><path d="M320 208 L305 245 L365 208" fill="#FFFFFF" stroke="#FDBA74" stroke-width="4"/><circle cx="340" cy="150" r="11" fill="#FB923C" stroke="none" stroke-width="0" opacity="1"/><circle cx="405" cy="150" r="11" fill="#FB923C" stroke="none" stroke-width="0" opacity="1"/><circle cx="470" cy="150" r="11" fill="#FB923C" stroke="none" stroke-width="0" opacity="1"/><rect x="645" y="95" width="235" height="150" rx="26" fill="#FFFFFF" stroke="#111827" stroke-width="7" opacity="1"/><rect x="675" y="126" width="175" height="38" rx="16" fill="#FDBA74" stroke="none" stroke-width="0" opacity="1"/><line x1="690" y1="190" x2="835" y2="190" stroke="#CBD5E1" stroke-width="8" stroke-linecap="round" opacity="1"/><line x1="690" y1="220" x2="805" y2="220" stroke="#CBD5E1" stroke-width="8" stroke-linecap="round" opacity="1"/><rect x="885" y="250" width="155" height="95" rx="30" fill="#FBBF24" stroke="#111827" stroke-width="7" opacity="1"/><path d="M915 250 C950 195 995 195 1022 250" fill="#FBBF24" stroke="#111827" stroke-width="7" stroke-linecap="round" stroke-linejoin="round" opacity="1"/><text x="145" y="355" font-family="Arial, sans-serif" font-size="48" font-weight="900" fill="#9A3412" text-anchor="middle" opacity="1">OPENING</text></svg>