<svg xmlns="http://www.w3.org/2000/svg" width="1200" height="420" viewBox="0 0 1200 420" role="img">
    <defs>
      <filter id="softShadow" x="-20%" y="-20%" width="140%" height="140%">
        <feDropShadow dx="0" dy="10" stdDeviation="10" flood-color="#1f2937" flood-opacity="0.16"/>
      </filter>
      <filter id="tinyShadow" x="-20%" y="-20%" width="140%" height="140%">
        <feDropShadow dx="0" dy="5" stdDeviation="5" flood-color="#1f2937" flood-opacity="0.14"/>
      </filter>
      <linearGradient id="paperGrad" x1="0" x2="1" y1="0" y2="1">
        <stop offset="0%" stop-color="#fffaf0"/>
        <stop offset="100%" stop-color="#f4ead8"/>
      </linearGradient>
      <linearGradient id="nightGrad" x1="0" x2="1" y1="0" y2="1">
        <stop offset="0%" stop-color="#20243a"/>
        <stop offset="100%" stop-color="#111827"/>
      </linearGradient>
    </defs>
    <rect width="1200" height="420" rx="42" fill="#F0FDF4"/><rect x="54" y="46" width="170" height="58" rx="22" fill="#FFFFFF" stroke="#111827" stroke-width="5" opacity="1"/><text x="139" y="88" font-family="Arial, sans-serif" font-size="40" font-weight="900" fill="#111827" text-anchor="middle" opacity="1">W16</text><rect x="335" y="80" width="480" height="280" rx="34" fill="#FFFFFF" stroke="#111827" stroke-width="8" opacity="1"/><rect x="335" y="80" width="480" height="62" rx="30" fill="#DCFCE7" stroke="#111827" stroke-width="0" opacity="1"/><circle cx="380" cy="111" r="9" fill="#EF4444" stroke="none" stroke-width="0" opacity="1"/><circle cx="415" cy="111" r="9" fill="#F59E0B" stroke="none" stroke-width="0" opacity="1"/><circle cx="450" cy="111" r="9" fill="#22C55E" stroke="none" stroke-width="0" opacity="1"/><rect x="390" y="178" width="130" height="58" rx="18" fill="#DBEAFE" stroke="#111827" stroke-width="5" opacity="1"/><text x="455" y="220" font-family="Arial, sans-serif" font-size="44" font-weight="900" fill="#1E3A8A" text-anchor="middle" opacity="1">B+</text><rect x="565" y="178" width="130" height="58" rx="18" fill="#FEF3C7" stroke="#111827" stroke-width="5" opacity="1"/><text x="630" y="220" font-family="Arial, sans-serif" font-size="44" font-weight="900" fill="#92400E" text-anchor="middle" opacity="1">A0</text><rect x="390" y="265" width="305" height="38" rx="16" fill="#E2E8F0" stroke="none" stroke-width="0" opacity="1"/><rect x="390" y="265" width="230" height="38" rx="16" fill="#22C55E" stroke="none" stroke-width="0" opacity="1"/><path d="M855 275 C905 245 948 270 975 310" fill="none" stroke="#111827" stroke-width="10" stroke-linecap="round" stroke-linejoin="round" opacity="1"/><circle cx="880" cy="263" r="18" fill="#FFD7B5" stroke="#111827" stroke-width="5" opacity="1"/><text x="150" y="355" font-family="Arial, sans-serif" font-size="50" font-weight="900" fill="#166534" text-anchor="middle" opacity="1">GRADES</text></svg>