<svg xmlns="http://www.w3.org/2000/svg" width="1200" height="420" viewBox="0 0 1200 420" role="img">
    <defs>
      <filter id="softShadow" x="-20%" y="-20%" width="140%" height="140%">
        <feDropShadow dx="0" dy="10" stdDeviation="10" flood-color="#1f2937" flood-opacity="0.16"/>
      </filter>
      <filter id="tinyShadow" x="-20%" y="-20%" width="140%" height="140%">
        <feDropShadow dx="0" dy="5" stdDeviation="5" flood-color="#1f2937" flood-opacity="0.14"/>
      </filter>
      <linearGradient id="paperGrad" x1="0" x2="1" y1="0" y2="1">
        <stop offset="0%" stop-color="#fffaf0"/>
        <stop offset="100%" stop-color="#f4ead8"/>
      </linearGradient>
      <linearGradient id="nightGrad" x1="0" x2="1" y1="0" y2="1">
        <stop offset="0%" stop-color="#20243a"/>
        <stop offset="100%" stop-color="#111827"/>
      </linearGradient>
    </defs>
    <rect width="1200" height="420" rx="42" fill="#F5F3FF"/><rect x="54" y="46" width="170" height="58" rx="22" fill="#FFFFFF" stroke="#111827" stroke-width="5" opacity="1"/><text x="139" y="88" font-family="Arial, sans-serif" font-size="40" font-weight="900" fill="#111827" text-anchor="middle" opacity="1">W4</text><rect x="260" y="155" width="285" height="160" rx="16" fill="#334155" stroke="none" stroke-width="0" opacity="1"/><rect x="278" y="173" width="249" height="124" rx="8" fill="#94A3B8" stroke="none" stroke-width="0" opacity="1"/><rect x="240" y="315" width="325" height="28" rx="12" fill="#1F2937" stroke="none" stroke-width="0" opacity="1"/><rect x="630" y="155" width="285" height="160" rx="16" fill="#334155" stroke="none" stroke-width="0" opacity="1"/><rect x="648" y="173" width="249" height="124" rx="8" fill="#94A3B8" stroke="none" stroke-width="0" opacity="1"/><rect x="610" y="315" width="325" height="28" rx="12" fill="#1F2937" stroke="none" stroke-width="0" opacity="1"/><rect x="430" y="70" width="320" height="92" rx="30" fill="#FFFFFF" stroke="#C4B5FD" stroke-width="4" opacity="1"/><circle cx="510" cy="116" r="10" fill="#7C3AED" stroke="none" stroke-width="0" opacity="1"/><circle cx="590" cy="116" r="10" fill="#7C3AED" stroke="none" stroke-width="0" opacity="1"/><circle cx="670" cy="116" r="10" fill="#7C3AED" stroke="none" stroke-width="0" opacity="1"/><rect x="505" y="315" width="175" height="55" rx="18" fill="#FBBF24" stroke="#111827" stroke-width="6" opacity="1"/><line x1="530" y1="343" x2="655" y2="343" stroke="#111827" stroke-width="6" stroke-linecap="round" opacity="1"/><text x="150" y="355" font-family="Arial, sans-serif" font-size="56" font-weight="900" fill="#5B21B6" text-anchor="middle" opacity="1">TEAM</text></svg>